<?xml version="1.0" encoding="utf-8"?>
<!-- Generator: Adobe Illustrator 22.0.0, SVG Export Plug-In . SVG Version: 6.00 Build 0)  -->
<svg version="1.1" id="Layer_1" xmlns="http://www.w3.org/2000/svg" xmlns:xlink="http://www.w3.org/1999/xlink" x="0px" y="0px"
	 viewBox="0 0 17.7 18.6" style="enable-background:new 0 0 17.7 18.6;" xml:space="preserve">
<style type="text/css">
	.st0{fill:none;stroke:#888989;stroke-width:0.5;stroke-linecap:round;stroke-linejoin:round;stroke-miterlimit:10;}
	.st1{fill:none;stroke:#000000;stroke-width:0.5;stroke-linecap:round;stroke-linejoin:round;stroke-miterlimit:10;}
	.st2{fill:#FFFFFF;stroke:#000000;stroke-width:0.5;stroke-linecap:round;stroke-linejoin:round;stroke-miterlimit:10;}
	.st3{fill:#E5E4E4;stroke:#000000;stroke-width:0.5;stroke-linecap:round;stroke-linejoin:round;stroke-miterlimit:10;}
	.st4{fill:#888989;stroke:#000000;stroke-width:0.5;stroke-linecap:round;stroke-linejoin:round;stroke-miterlimit:10;}
	.st5{fill:#AFAFAF;stroke:#000000;stroke-width:0.5;stroke-linecap:round;stroke-linejoin:round;stroke-miterlimit:10;}
</style>
<path class="st0" d="M5.6,10.8c-0.4-0.4-0.7-0.9-1-1.4S4.3,8.2,4.3,7.6s0.1-1.2,0.4-1.8s0.6-1,1-1.4c0.4-0.4,0.9-0.7,1.4-1
	c0.5-0.2,1.1-0.4,1.8-0.4s1.2,0.1,1.8,0.4c0.5,0.2,1,0.6,1.4,1c0.4,0.4,0.7,0.9,1,1.4c0.2,0.5,0.4,1.1,0.4,1.8S13.2,8.8,13,9.3
	c-0.2,0.5-0.6,1-1,1.4"/>
<rect x="0.3" y="10.8" class="st1" width="17.2" height="7.6"/>
<g>
	<line class="st2" x1="8.7" y1="11.1" x2="8.7" y2="18.1"/>
	<line class="st2" x1="10.8" y1="11.1" x2="13.2" y2="18.1"/>
	<line class="st2" x1="13" y1="11.1" x2="17.3" y2="18.1"/>
	<line class="st2" x1="4.4" y1="11.1" x2="0.4" y2="18.1"/>
	<line class="st2" x1="6.5" y1="11.1" x2="4.2" y2="18.1"/>
</g>
<g>
	<line class="st0" x1="15.3" y1="7.8" x2="16.4" y2="7.8"/>
	<line class="st0" x1="1.3" y1="7.8" x2="2.3" y2="7.8"/>
	<line class="st0" x1="8.8" y1="0.3" x2="8.8" y2="1.3"/>
	<line class="st0" x1="14.5" y1="4.6" x2="15.4" y2="4"/>
	<line class="st0" x1="5.1" y1="1.3" x2="5.6" y2="2.2"/>
	<line class="st0" x1="12.1" y1="2.2" x2="12.6" y2="1.3"/>
	<line class="st0" x1="2.3" y1="4" x2="3.2" y2="4.6"/>
</g>
<polygon class="st3" points="8.7,14.6 2.4,14.6 3.7,12.3 8.7,12.3 "/>
<polygon class="st4" points="15.1,14.5 12,14.5 11.3,12.6 13.9,12.6 "/>
<polygon class="st4" points="0.8,17.4 4.4,17.4 5.1,15.5 1.9,15.5 "/>
<polygon class="st5" points="13.3,18.4 8.7,18.4 8.7,15.4 12.2,15.4 "/>
</svg>
