<?xml version="1.0" encoding="utf-8"?>
<!-- Generator: Adobe Illustrator 19.2.1, SVG Export Plug-In . SVG Version: 6.00 Build 0)  -->
<svg version="1.1" id="Layer_1" xmlns="http://www.w3.org/2000/svg" xmlns:xlink="http://www.w3.org/1999/xlink" x="0px" y="0px"
	 viewBox="0 0 20.1 8.4" style="enable-background:new 0 0 20.1 8.4;" xml:space="preserve">
<style type="text/css">
	.st0{fill:#FFFFFF;stroke:#D9D9D9;stroke-width:0.5;stroke-linecap:round;stroke-linejoin:round;}
</style>
<path class="st0" d="M11.5,8.1c-0.2-1.2-1.3-2-2.5-2c-0.2,0-0.4,0-0.6,0.1C7.8,5.3,6.8,4.8,5.7,4.8c-1.9,0-3.4,1.5-3.4,3.4l0,0H11.5
	z"/>
<path class="st0" d="M8.1,6.9c0.3-1.5,1.6-2.6,3.2-2.6c0.3,0,0.5,0,0.8,0.1c0.8-1.1,2.1-1.9,3.5-1.9c2.4,0,4.3,1.9,4.3,4.3l0,0H8.1z
	"/>
<path class="st0" d="M1.3,0.8c0-0.3-0.2-0.6-0.5-0.6S0.3,0.5,0.3,0.8"/>
<path class="st0" d="M2.3,0.8c0-0.3-0.2-0.6-0.5-0.6S1.3,0.5,1.3,0.8"/>
</svg>
