<?xml version="1.0" encoding="utf-8"?>
<!-- Generator: Adobe Illustrator 19.2.1, SVG Export Plug-In . SVG Version: 6.00 Build 0)  -->
<svg version="1.1" id="Layer_1" xmlns="http://www.w3.org/2000/svg" xmlns:xlink="http://www.w3.org/1999/xlink" x="0px" y="0px"
	 viewBox="0 0 18.7 7.4" style="enable-background:new 0 0 18.7 7.4;" xml:space="preserve">
<style type="text/css">
	.st0{fill:none;stroke:#D9D9D9;stroke-width:0.5;stroke-linecap:round;stroke-linejoin:round;}
	.st1{fill:#FFFFFF;stroke:#D9D9D9;stroke-width:0.5;stroke-linecap:round;stroke-linejoin:round;}
</style>
<path class="st0" d="M6.6,6c0.3-1.5,1.6-2.6,3.2-2.6c0.3,0,0.5,0,0.8,0.1c0.8-1.1,2.1-1.9,3.5-1.9c2.4,0,4.3,1.9,4.3,4.3l0,0H6.6z"
	/>
<path class="st1" d="M10.5,7.2c-0.2-1.2-1.3-2-2.5-2c-0.2,0-0.4,0-0.6,0.1C6.8,4.4,5.8,3.8,4.7,3.8c-1.9,0-3.4,1.5-3.4,3.4l0,0H10.5
	z"/>
<path class="st1" d="M1.3,2.2c0-0.3-0.2-0.6-0.5-0.6S0.3,1.9,0.3,2.2"/>
<path class="st1" d="M2.3,2.2c0-0.3-0.2-0.6-0.5-0.6S1.3,1.9,1.3,2.2"/>
<path class="st1" d="M5.3,0.8c0-0.3-0.2-0.6-0.5-0.6S4.3,0.5,4.3,0.8"/>
<path class="st1" d="M6.3,0.8c0-0.3-0.2-0.6-0.5-0.6S5.3,0.5,5.3,0.8"/>
</svg>
