<?xml version="1.0" encoding="utf-8"?>
<!-- Generator: Adobe Illustrator 22.0.0, SVG Export Plug-In . SVG Version: 6.00 Build 0)  -->
<svg version="1.1" id="Layer_1" xmlns="http://www.w3.org/2000/svg" xmlns:xlink="http://www.w3.org/1999/xlink" x="0px" y="0px"
	 viewBox="0 0 19.7 17.9" style="enable-background:new 0 0 19.7 17.9;" xml:space="preserve">
<style type="text/css">
	.st0{clip-path:url(#SVGID_2_);}
	.st1{fill:none;stroke:#888989;stroke-width:0.25;stroke-linecap:round;stroke-linejoin:round;stroke-miterlimit:10;}
	.st2{fill:#FFFFFF;stroke:#000000;stroke-width:0.5;stroke-linecap:round;stroke-linejoin:round;stroke-miterlimit:10;}
	.st3{fill:none;stroke:#000000;stroke-width:0.5;stroke-linecap:round;stroke-linejoin:round;stroke-miterlimit:10;}
</style>
<g>
	<defs>
		<circle id="SVGID_1_" cx="9.9" cy="10.7" r="6.9"/>
	</defs>
	<clipPath id="SVGID_2_">
		<use xlink:href="#SVGID_1_"  style="overflow:visible;"/>
	</clipPath>
	<g class="st0">
		<line class="st1" x1="13.7" y1="-8.6" x2="-2.5" y2="7.6"/>
		<line class="st1" x1="11" y1="-4.8" x2="-2" y2="8.2"/>
		<line class="st1" x1="8.5" y1="-1.2" x2="-1.4" y2="8.7"/>
		<line class="st1" x1="9.4" y1="-1" x2="-0.9" y2="9.3"/>
		<line class="st1" x1="17" y1="-5.3" x2="0.8" y2="11"/>
		<line class="st1" x1="14.9" y1="-0.9" x2="1.9" y2="12.1"/>
		<line class="st1" x1="12.9" y1="3.3" x2="3" y2="13.2"/>
		<line class="st1" x1="13.9" y1="3.4" x2="3.6" y2="13.7"/>
		<line class="st1" x1="15.9" y1="-6.4" x2="-0.3" y2="9.8"/>
		<line class="st1" x1="13.2" y1="-2.6" x2="0.2" y2="10.4"/>
		<line class="st1" x1="11.2" y1="1.6" x2="1.3" y2="11.5"/>
		<line class="st1" x1="12.8" y1="2.3" x2="2.4" y2="12.6"/>
		<line class="st1" x1="20.3" y1="-2" x2="4.1" y2="14.3"/>
		<line class="st1" x1="17.7" y1="1.8" x2="4.7" y2="14.8"/>
		<line class="st1" x1="15.1" y1="5.5" x2="5.2" y2="15.4"/>
		<line class="st1" x1="16.1" y1="5.6" x2="5.8" y2="15.9"/>
		<line class="st1" x1="22.6" y1="0.3" x2="6.3" y2="16.5"/>
		<line class="st1" x1="19.9" y1="4" x2="6.9" y2="17.1"/>
		<line class="st1" x1="17.3" y1="7.7" x2="7.4" y2="17.6"/>
		<line class="st1" x1="18.3" y1="7.8" x2="8" y2="18.2"/>
		<line class="st1" x1="25.9" y1="3.6" x2="9.6" y2="19.8"/>
		<line class="st1" x1="23.8" y1="7.9" x2="10.8" y2="20.9"/>
		<line class="st1" x1="21.8" y1="12.1" x2="11.9" y2="22"/>
		<line class="st1" x1="24.8" y1="2.5" x2="8.5" y2="18.7"/>
		<line class="st1" x1="22.1" y1="6.3" x2="9.1" y2="19.3"/>
		<line class="st1" x1="20.1" y1="10.5" x2="10.2" y2="20.4"/>
		<line class="st1" x1="21.6" y1="11.2" x2="11.3" y2="21.5"/>
		<line class="st1" x1="22.3" y1="12.7" x2="12.4" y2="22.6"/>
		<line class="st1" x1="23.3" y1="12.8" x2="13" y2="23.1"/>
	</g>
</g>
<circle class="st2" cx="9.9" cy="10.7" r="4.9"/>
<circle class="st1" cx="9.9" cy="10.7" r="2.9"/>
<line class="st2" x1="9.9" y1="0.3" x2="9.9" y2="1.6"/>
<line class="st2" x1="2.5" y1="3.3" x2="3.5" y2="4.2"/>
<line class="st1" x1="16.4" y1="4.2" x2="17.3" y2="3.3"/>
<line class="st2" x1="0.3" y1="6.8" x2="1.5" y2="7.3"/>
<polyline class="st2" points="12.9,3.4 13.4,2.2 13.8,1 "/>
<polyline class="st2" points="9.9,10.7 10.4,9.5 13.4,2.2 "/>
<line class="st1" x1="18.3" y1="7.1" x2="19.5" y2="6.6"/>
<line class="st2" x1="6.4" y1="2.3" x2="5.9" y2="1.1"/>
<line class="st2" x1="1.3" y1="4.9" x2="2.4" y2="5.6"/>
<line class="st1" x1="15" y1="3.1" x2="15.8" y2="2"/>
<line class="st2" x1="8.2" y1="1.7" x2="7.9" y2="0.4"/>
<line class="st1" x1="17.5" y1="5.6" x2="18.6" y2="4.9"/>
<line class="st2" x1="4.8" y1="3.1" x2="4.1" y2="2"/>
<line class="st2" x1="11.7" y1="1.7" x2="11.9" y2="0.4"/>
<circle class="st3" cx="9.9" cy="10.7" r="6.9"/>
</svg>
