<?xml version="1.0" encoding="utf-8"?>
<!-- Generator: Adobe Illustrator 22.0.0, SVG Export Plug-In . SVG Version: 6.00 Build 0)  -->
<svg version="1.1" id="Layer_1" xmlns="http://www.w3.org/2000/svg" xmlns:xlink="http://www.w3.org/1999/xlink" x="0px" y="0px"
	 viewBox="0 0 13.1 13.1" style="enable-background:new 0 0 13.1 13.1;" xml:space="preserve">
<style type="text/css">
	.st0{clip-path:url(#SVGID_2_);fill:none;stroke:#FFFFFF;stroke-width:0.25;stroke-miterlimit:10;}
	.st1{fill:none;stroke:#FFFFFF;stroke-width:0.5;stroke-linecap:round;stroke-linejoin:round;stroke-miterlimit:10;}
</style>
<g>
	<defs>
		<circle id="SVGID_1_" cx="6.5" cy="6.5" r="6.3"/>
	</defs>
	<clipPath id="SVGID_2_">
		<use xlink:href="#SVGID_1_"  style="overflow:visible;"/>
	</clipPath>
	<line class="st0" x1="2.1" y1="5.3" x2="-1.8" y2="9.2"/>
	<line class="st0" x1="4.5" y1="2.9" x2="2.1" y2="5.3"/>
	<line class="st0" x1="4.2" y1="3.2" x2="7.5" y2="-0.1"/>
	<line class="st0" x1="2.9" y1="6.6" x2="-0.7" y2="10.3"/>
	<line class="st0" x1="7.7" y1="1.9" x2="4" y2="5.5"/>
	<line class="st0" x1="4" y1="7.7" x2="0.4" y2="11.3"/>
	<line class="st0" x1="7.5" y1="4.2" x2="5.6" y2="6.1"/>
	<line class="st0" x1="8.5" y1="3.2" x2="9.5" y2="2.2"/>
	<line class="st0" x1="8.5" y1="5.4" x2="6.6" y2="7.2"/>
	<line class="st0" x1="4.7" y1="9.2" x2="2.6" y2="11.3"/>
	<line class="st0" x1="13.8" y1="0" x2="9.8" y2="4.1"/>
	<line class="st0" x1="4.9" y1="11.1" x2="2.5" y2="13.5"/>
	<line class="st0" x1="10.2" y1="5.8" x2="6.2" y2="9.8"/>
	<line class="st0" x1="10.8" y1="7.4" x2="3.6" y2="14.6"/>
	<line class="st0" x1="11.6" y1="8.7" x2="4.7" y2="15.6"/>
	
		<use xlink:href="#SVGID_1_"  style="overflow:visible;fill:none;stroke:#FFFFFF;stroke-width:0.5;stroke-linecap:round;stroke-linejoin:round;stroke-miterlimit:10;"/>
</g>
<path class="st1" d="M11.9,9.8l-0.3-0.3V8.7c0,0,0-0.1,0-0.1l-0.8-1.7V6.1c0-0.1,0-0.1-0.1-0.2L9.9,5.5c-0.1,0-0.1,0-0.2,0L9,5.6
	L7.6,5.1L7.4,3.8L8,3.3H9l0.4,0.5c0,0,0.1,0.1,0.1,0.1l1.3,0.2c0,0,0.1,0,0.1,0l1.2-0.4C13.1,5.7,13,8,11.9,9.8L11.9,9.8z"/>
<path class="st1" d="M10.8,2.1l-0.3,0.2l-1-0.2L8.9,1.9c0,0-0.1,0-0.1,0L8,2.1L7.6,2l0.3-0.5h0.7c0,0,0.1,0,0.1,0L9.4,1
	C10,1.3,10.4,1.7,10.8,2.1z"/>
<path class="st1" d="M4,0.8l0.5,0.3c0,0,0.1,0,0.1,0l1,0.2L5.6,1.7L5,1.8c0,0-0.1,0-0.1,0.1L4.3,3l-1,0.6L1.9,3.8
	C1.7,3.8,1.7,3.9,1.7,4v0.6c0,0.1,0,0.1,0.1,0.2l0.4,0.4v0.4L1.2,4.9l-0.3-1C1.5,2.5,2.6,1.4,4,0.8z"/>
<path class="st1" d="M4.5,7.8L3.4,7.6L3,6.8V6.3l0.9-0.9L4.2,6c0,0.1,0.1,0.1,0.2,0.1h1.5l0.6,1.1c0,0.1,0.1,0.1,0.2,0.1h0.7
	L7.3,8.2L6.4,9.1c0,0-0.1,0.1-0.1,0.2v0.6l-0.9,0.6c-0.1,0-0.1,0.1-0.1,0.2v0.9l-0.3-0.1l-0.4-1V8.1C4.7,7.9,4.6,7.8,4.5,7.8z"/>
</svg>
