<?xml version="1.0" encoding="utf-8"?>
<!-- Generator: Adobe Illustrator 22.0.0, SVG Export Plug-In . SVG Version: 6.00 Build 0)  -->
<svg version="1.1" id="Layer_1" xmlns="http://www.w3.org/2000/svg" xmlns:xlink="http://www.w3.org/1999/xlink" x="0px" y="0px"
	 viewBox="0 0 25.8 16.8" style="enable-background:new 0 0 25.8 16.8;" xml:space="preserve">
<style type="text/css">
	.st0{fill:none;stroke:#D6D6D6;stroke-width:0.25;stroke-miterlimit:10;}
	.st1{fill:none;stroke:#000000;stroke-width:0.5;stroke-linecap:round;stroke-linejoin:round;stroke-miterlimit:10;}
	.st2{fill:#FFFFFF;stroke:#000000;stroke-width:0.5;stroke-linecap:round;stroke-linejoin:round;stroke-miterlimit:10;}
	.st3{fill:#1D1D1C;}
	.st4{fill:none;stroke:#010202;stroke-width:0.25;stroke-linecap:round;stroke-linejoin:round;stroke-miterlimit:10;}
	.st5{fill:none;stroke:#888989;stroke-width:0.25;stroke-linecap:round;stroke-linejoin:round;stroke-miterlimit:10;}
</style>
<path class="st0" d="M20.7,7.8"/>
<path class="st0" d="M2.8,7.8"/>
<path class="st1" d="M20.3,12.2H3.2c-0.4,0-0.7-0.3-0.7-0.7V0.9c0-0.4,0.3-0.7,0.7-0.7h17.1c0.4,0,0.7,0.3,0.7,0.7v10.6
	C21,11.9,20.7,12.2,20.3,12.2z"/>
<line class="st1" x1="7.3" y1="16.6" x2="16.3" y2="16.6"/>
<rect x="9.4" y="12.2" class="st1" width="4.8" height="4.4"/>
<path class="st1" d="M12.7,14.2v0.3c0,0.5-0.4,0.9-0.9,0.9h0c-0.5,0-0.9-0.4-0.9-0.9v-0.3c0-0.5,0.4-0.9,0.9-0.9h0
	C12.3,13.3,12.7,13.7,12.7,14.2z"/>
<path class="st2" d="M24.8,16.6h-6.1c-0.4,0-0.7-0.3-0.7-0.7v-9c0-0.4,0.3-0.7,0.7-0.7h6.1c0.4,0,0.7,0.3,0.7,0.7v9
	C25.5,16.3,25.2,16.6,24.8,16.6z"/>
<path class="st2" d="M3.9,16.6h-3c-0.4,0-0.7-0.3-0.7-0.7V9.1c0-0.4,0.3-0.7,0.7-0.7h3c0.4,0,0.7,0.3,0.7,0.7v6.8
	C4.6,16.3,4.3,16.6,3.9,16.6z"/>
<path class="st3" d="M3.4,8.5v0.2c0,0.2-0.1,0.3-0.3,0.3H1.7c-0.2,0-0.3-0.1-0.3-0.3V8.5"/>
<circle class="st4" cx="21.8" cy="14.8" r="0.5"/>
<g>
	<line class="st5" x1="14.4" y1="5.4" x2="12.5" y2="7.4"/>
	<line class="st5" x1="14.6" y1="6.3" x2="13" y2="7.9"/>
	<line class="st5" x1="14.8" y1="7.2" x2="13.5" y2="8.4"/>
	<line class="st5" x1="15.3" y1="7.7" x2="14.1" y2="9"/>
</g>
<circle class="st5" cx="21.8" cy="10.1" r="1.7"/>
<circle class="st1" cx="14.5" cy="7" r="2.1"/>
<g>
	<line class="st1" x1="6.3" y1="5.7" x2="9.3" y2="5.7"/>
	<line class="st1" x1="6.3" y1="8.2" x2="7.8" y2="8.2"/>
	<line class="st1" x1="6.3" y1="7" x2="10.7" y2="7"/>
</g>
<path class="st1" d="M21.8,8.4c1,0,1.7,0.8,1.7,1.7s-0.8,1.7-1.7,1.7c-1,0-1.7-0.8-1.7-1.7"/>
<polyline class="st1" points="14.5,4.9 14.5,7 16,8.4 "/>
<path class="st1" d="M11.8,9"/>
<line class="st1" x1="2.6" y1="2.1" x2="20.7" y2="2.1"/>
<line class="st1" x1="4" y1="1.2" x2="4.4" y2="1.2"/>
</svg>
