<?xml version="1.0" encoding="utf-8"?>
<!-- Generator: Adobe Illustrator 22.0.0, SVG Export Plug-In . SVG Version: 6.00 Build 0)  -->
<svg version="1.1" id="Layer_1" xmlns="http://www.w3.org/2000/svg" xmlns:xlink="http://www.w3.org/1999/xlink" x="0px" y="0px"
	 viewBox="0 0 9.7 16.3" style="enable-background:new 0 0 9.7 16.3;" xml:space="preserve">
<style type="text/css">
	.st0{fill:#FFFFFF;}
	.st1{fill:none;stroke:#FFFFFF;stroke-width:0.5;stroke-linecap:round;stroke-linejoin:round;stroke-miterlimit:10;}
	.st2{fill:none;stroke:#FFFFFF;stroke-width:0.5;stroke-miterlimit:10;}
</style>
<path class="st0" d="M4.3,5.4c0-0.1-0.1-0.2-0.2-0.2C4,5.2,3.9,5.3,3.9,5.4c0,0.4,0.3,0.7,0.8,0.8v0c0,0.1,0.1,0.2,0.2,0.2
	C5,6.4,5,6.3,5,6.2v0c0.4-0.1,0.8-0.4,0.8-0.8c0-0.4-0.3-0.7-0.8-0.8V3.9C5.3,4,5.4,4.1,5.4,4.3c0,0.1,0.1,0.2,0.2,0.2
	c0.1,0,0.2-0.1,0.2-0.2c0-0.4-0.3-0.7-0.8-0.8v0C5,3.4,5,3.3,4.8,3.3c-0.1,0-0.2,0.1-0.2,0.2v0C4.2,3.6,3.9,3.9,3.9,4.3S4.2,5,4.7,5
	v0.8C4.4,5.7,4.3,5.6,4.3,5.4z M5.4,5.4c0,0.2-0.2,0.3-0.4,0.4V5.1C5.3,5.1,5.4,5.3,5.4,5.4z M4.3,4.3c0-0.2,0.2-0.3,0.4-0.4v0.7
	C4.4,4.6,4.3,4.4,4.3,4.3z"/>
<path class="st1" d="M4.8,12.9H2.3c-0.3,0-0.7-0.1-0.9-0.4C1.2,12.3,1,12,1,11.6v-1.3h2.5c0.3,0,0.7,0.1,0.9,0.4
	c0.2,0.2,0.4,0.6,0.4,0.9L4.8,12.9L4.8,12.9z"/>
<line class="st1" x1="4.8" y1="9.4" x2="4.8" y2="16.1"/>
<path class="st1" d="M4.8,15.6v-1.3c0-0.3,0.1-0.7,0.4-0.9c0.2-0.2,0.6-0.4,0.9-0.4h2.5v1.3c0,0.3-0.1,0.7-0.4,0.9
	c-0.2,0.2-0.6,0.4-0.9,0.4H4.8L4.8,15.6z"/>
<path class="st2" d="M4.8,9.4c-2.5,0-4.6-2.1-4.6-4.6c0-2.5,2.1-4.6,4.6-4.6c2.5,0,4.6,2.1,4.6,4.6C9.4,7.4,7.4,9.4,4.8,9.4z"/>
<g>
	<path class="st0" d="M4.8,1.7C6.6,1.7,8,3.1,8,4.8C8,6.6,6.6,8,4.8,8S1.7,6.6,1.7,4.8C1.7,3.1,3.1,1.7,4.8,1.7 M4.8,1.5
		C3,1.5,1.5,3,1.5,4.8S3,8.2,4.8,8.2s3.4-1.5,3.4-3.4S6.7,1.5,4.8,1.5L4.8,1.5z"/>
</g>
</svg>
