<?xml version="1.0" encoding="utf-8"?>
<!-- Generator: Adobe Illustrator 22.0.0, SVG Export Plug-In . SVG Version: 6.00 Build 0)  -->
<svg version="1.1" id="Layer_1" xmlns="http://www.w3.org/2000/svg" xmlns:xlink="http://www.w3.org/1999/xlink" x="0px" y="0px"
	 viewBox="0 0 16.5 14.4" style="enable-background:new 0 0 16.5 14.4;" xml:space="preserve">
<style type="text/css">
	.st0{fill:none;stroke:#FFFFFF;stroke-width:0.5;stroke-linejoin:round;stroke-miterlimit:10;}
</style>
<g>
	<defs>
		<polygon id="SVGID_1_" points="16.3,14.1 8.3,14.1 0.3,14.1 0.3,9.7 0.3,5.2 8.3,9.2 16.3,5.2 16.3,9.7 		"/>
	</defs>
	<clipPath id="SVGID_2_">
		<use xlink:href="#SVGID_1_"  style="overflow:visible;"/>
	</clipPath>
</g>
<polygon class="st0" points="16.3,14.1 8.3,14.1 0.3,14.1 0.3,9.7 0.3,5.2 8.3,9.2 16.3,5.2 16.3,9.7 "/>
<polyline class="st0" points="3.3,3.7 2.3,4.2 1.3,4.7 0.3,5.2 "/>
<polyline class="st0" points="16.3,5.2 15.3,4.7 14.3,4.2 13.3,3.7 "/>
<polyline class="st0" points="3.3,6.7 3.3,5.2 3.3,0.3 8.3,0.3 13.3,0.3 13.3,5.2 13.3,6.7 "/>
<g>
	<line class="st0" x1="5.6" y1="2.2" x2="11" y2="2.2"/>
	<line class="st0" x1="5.6" y1="3.5" x2="11" y2="3.5"/>
	<line class="st0" x1="5.6" y1="4.8" x2="11" y2="4.8"/>
	<line class="st0" x1="5.6" y1="6.1" x2="8.4" y2="6.1"/>
</g>
<g>
	<line class="st0" x1="2.2" y1="11.2" x2="6.1" y2="11.2"/>
	<line class="st0" x1="2.2" y1="12.5" x2="4" y2="12.5"/>
</g>
</svg>
