<?xml version="1.0" encoding="utf-8"?>
<!-- Generator: Adobe Illustrator 22.0.0, SVG Export Plug-In . SVG Version: 6.00 Build 0)  -->
<svg version="1.1" id="Layer_1" xmlns="http://www.w3.org/2000/svg" xmlns:xlink="http://www.w3.org/1999/xlink" x="0px" y="0px"
	 viewBox="0 0 15.3 16.1" style="enable-background:new 0 0 15.3 16.1;" xml:space="preserve">
<style type="text/css">
	.st0{fill:none;stroke:#FFFFFF;stroke-width:0.5;stroke-miterlimit:10;}
	.st1{fill:none;stroke:#FFFFFF;stroke-width:0.25;stroke-miterlimit:10;}
	.st2{fill:none;stroke:#FFFFFF;stroke-width:0.5;stroke-linecap:round;stroke-linejoin:round;stroke-miterlimit:10;}
</style>
<path class="st0" d="M4.9,9.3C4.5,8.9,4.3,8.5,4.1,8.1c-0.2-0.5-0.3-1-0.3-1.5s0.1-1,0.3-1.5c0.2-0.5,0.5-0.9,0.8-1.2
	C5.2,3.4,5.7,3.2,6.1,3c0.5-0.2,1-0.3,1.5-0.3s1,0.1,1.5,0.3s0.9,0.5,1.2,0.8S11,4.6,11.2,5s0.3,1,0.3,1.5s-0.1,1-0.3,1.5
	c-0.2,0.5-0.5,0.9-0.8,1.2"/>
<rect x="0.3" y="9.3" class="st0" width="14.8" height="6.5"/>
<g>
	<line class="st1" x1="7.5" y1="9.6" x2="7.5" y2="15.6"/>
	<line class="st1" x1="9.3" y1="9.6" x2="11.3" y2="15.6"/>
	<line class="st1" x1="11.2" y1="9.6" x2="14.9" y2="15.6"/>
	<line class="st1" x1="3.8" y1="9.6" x2="0.4" y2="15.6"/>
	<line class="st1" x1="5.7" y1="9.6" x2="3.7" y2="15.6"/>
</g>
<g>
	<line class="st2" x1="13.2" y1="6.8" x2="14.1" y2="6.8"/>
	<line class="st2" x1="1.1" y1="6.8" x2="2.1" y2="6.8"/>
	<line class="st2" x1="7.6" y1="0.3" x2="7.6" y2="1.2"/>
	<line class="st2" x1="12.5" y1="4" x2="13.3" y2="3.5"/>
	<line class="st2" x1="4.4" y1="1.1" x2="4.8" y2="1.9"/>
	<line class="st2" x1="10.4" y1="1.9" x2="10.9" y2="1.1"/>
	<line class="st2" x1="2" y1="3.5" x2="2.8" y2="4"/>
</g>
</svg>
