<?xml version="1.0" encoding="utf-8"?>
<!-- Generator: Adobe Illustrator 22.0.0, SVG Export Plug-In . SVG Version: 6.00 Build 0)  -->
<svg version="1.1" id="Layer_1" xmlns="http://www.w3.org/2000/svg" xmlns:xlink="http://www.w3.org/1999/xlink" x="0px" y="0px"
	 viewBox="0 0 27.1 15.3" style="enable-background:new 0 0 27.1 15.3;" xml:space="preserve">
<style type="text/css">
	.st0{fill:none;stroke:#000000;stroke-width:0.5;stroke-linecap:round;stroke-linejoin:round;stroke-miterlimit:10;}
	.st1{fill:none;stroke:#888989;stroke-width:0.25;stroke-linecap:round;stroke-linejoin:round;stroke-miterlimit:10;}
</style>
<path class="st0" d="M1,6.5l3.7,7.2c0.3,0.6,0.9,1,1.5,1l2.5,0.3c0.9,0.1,1.8-0.5,2.1-1.4l1.8-6.2c0.1-0.5-0.2-1-0.8-1H1z"/>
<line class="st1" x1="13.9" y1="0.5" x2="13.1" y2="5.2"/>
<line class="st1" x1="17.4" y1="0.2" x2="16.7" y2="4.5"/>
<line class="st1" x1="22.8" y1="0.3" x2="22.4" y2="2.8"/>
<path class="st0" d="M5.2,10l1.3,2.7c0.1,0.1,0.2,0.2,0.3,0.2l1.6,0.2c0.2,0,0.4-0.1,0.4-0.3L9.7,10c0.1-0.2-0.1-0.5-0.4-0.5H5.6
	C5.3,9.5,5.1,9.8,5.2,10z"/>
<path class="st1" d="M6.5,10.7l0.6,1.2c0,0.1,0.1,0.1,0.1,0.1L8,12c0.1,0,0.2,0,0.2-0.1l0.4-1.3c0-0.1,0-0.2-0.2-0.2H6.7
	C6.6,10.4,6.5,10.6,6.5,10.7z"/>
<path class="st0" d="M26.3,0.6c-19.4-1.9-26,4.7-26,4.7h13.4c0.3,0,0.7,0,1-0.1l11.8-3.4C27,1.5,26.9,0.7,26.3,0.6z"/>
<polyline class="st0" points="12.3,8.1 25.6,4.1 26.5,1.7 "/>
<polyline class="st0" points="17.6,6.5 17.9,7.6 20,7 19.7,5.9 "/>
<line class="st0" x1="0.6" y1="5.3" x2="1.3" y2="6.5"/>
</svg>
