<?xml version="1.0" encoding="utf-8"?>
<!-- Generator: Adobe Illustrator 22.0.0, SVG Export Plug-In . SVG Version: 6.00 Build 0)  -->
<svg version="1.1" id="Layer_1" xmlns="http://www.w3.org/2000/svg" xmlns:xlink="http://www.w3.org/1999/xlink" x="0px" y="0px"
	 viewBox="0 0 12.5 16.3" style="enable-background:new 0 0 12.5 16.3;" xml:space="preserve">
<style type="text/css">
	.st0{fill:none;stroke:#FFFFFF;stroke-width:0.5;stroke-miterlimit:10;}
	.st1{fill:none;stroke:#FFFFFF;stroke-width:0.25;stroke-miterlimit:10;}
</style>
<path class="st0" d="M4.3,10l-0.9,0.4l-0.3,0.1l-0.3,0.1l-0.3,0.1c0,0,0,0-0.1,0c0,0,0,0-0.1,0s0,0,0,0.1c0,0,0,0,0,0.1l-0.5,1.1
	l-0.5,1.1l-0.5,1.1l-0.5,1.1c0,0,0,0.1,0,0.1s0,0.1,0,0.1c0,0,0,0.1,0,0.1c0,0,0,0.1,0.1,0.1c0,0,0.1,0.1,0.1,0.1c0,0,0.1,0,0.1,0
	c0,0,0.1,0,0.1,0c0,0,0.1,0,0.1,0l0.7-0.3l0.7-0.3l0.7-0.3l0.7-0.3l0.7,0.3l0.7,0.3l0.7,0.3L6.1,16c0,0,0.1,0,0.1,0s0.1,0,0.1,0
	c0,0,0.1,0,0.1,0s0.1,0,0.1,0l0.7-0.3l0.7-0.3l0.7-0.3l0.7-0.3l0.7,0.3l0.7,0.3l0.7,0.3l0.7,0.3c0,0,0,0,0,0c0,0,0,0,0,0
	c0,0,0,0,0,0c0,0,0,0,0,0c0,0,0.1,0,0.1,0c0,0,0.1,0,0.1,0c0,0,0,0,0.1,0s0,0,0.1-0.1c0,0,0.1-0.1,0.1-0.1c0,0,0-0.1,0-0.1
	s0-0.1,0-0.1s0-0.1,0-0.1l-0.5-1.1l-0.5-1.1l-0.5-1.1L10.1,11c0,0,0,0,0-0.1c0,0,0,0,0-0.1s0,0-0.1,0c0,0,0,0-0.1,0l-0.3-0.1
	l-0.3-0.1l-0.3-0.1L8.2,10"/>
<path class="st0" d="M9.4,1.5c-0.8-0.8-2-1.3-3.2-1.3c-2.4,0-4.3,2-4.3,4.4c0,0.7,0.2,1.4,0.5,2l3.6,6c0.1,0.2,0.3,0.2,0.4,0.2
	s0.2,0,0.4-0.2l3.6-6c0.3-0.6,0.5-1.3,0.5-2C10.7,3.5,10.2,2.4,9.4,1.5z M6.3,6.1c-0.9,0-1.6-0.7-1.6-1.6c0-0.9,0.7-1.6,1.6-1.6
	c0.9,0,1.6,0.7,1.6,1.6C7.8,5.4,7.1,6.1,6.3,6.1z"/>
<line class="st1" x1="3.5" y1="14.8" x2="4.3" y2="10"/>
<line class="st1" x1="9.1" y1="14.8" x2="8.2" y2="10"/>
<line class="st1" x1="6.3" y1="16" x2="6.3" y2="13"/>
</svg>
