<?xml version="1.0" encoding="utf-8"?>
<!-- Generator: Adobe Illustrator 22.0.0, SVG Export Plug-In . SVG Version: 6.00 Build 0)  -->
<svg version="1.1" id="Calque_1" xmlns="http://www.w3.org/2000/svg" xmlns:xlink="http://www.w3.org/1999/xlink" x="0px" y="0px"
	 viewBox="0 0 564.3 374" style="enable-background:new 0 0 564.3 374;" xml:space="preserve">
<style type="text/css">
	.st0{fill:#504F4F;}
	.st1{fill:#FBB800;}
	.st2{fill:#DBCD00;}
	.st3{fill:#A8C813;}
	.st4{fill:#5A9534;}
	.st5{fill:#C2A712;}
	.st6{fill:#5EB130;}
</style>
<g>
	<g>
		<g>
			<g>
				<path class="st0" d="M47.4,300.7c-0.9-1.5-2.1-2.8-3.4-3.8c-1.5-1.1-3.5-1.7-5.9-1.7c-2.5,0-4.6,0.6-6,1.7
					c-1.3,1-2.4,2.3-3.4,3.7L0,346.3h16.2l6.6-10.7h30.1l6.7,10.7h16.3L47.4,300.7z M45.8,324H29.9l8-13L45.8,324z"/>
				<path class="st0" d="M125.1,328.2c0,1.3-0.1,2.3-0.4,3.1c-0.2,0.6-0.5,1.1-0.9,1.5c-0.4,0.4-1,0.6-1.7,0.8
					c-0.9,0.2-2.1,0.3-3.5,0.3h-15.6c-1.4,0-2.6-0.1-3.5-0.3c-0.7-0.2-1.3-0.4-1.7-0.8c-0.4-0.4-0.7-0.9-0.9-1.5
					c-0.2-0.7-0.4-1.8-0.4-3v-32H82.5v32.3c0,3.1,0.3,5.8,0.9,7.9c0.7,2.3,1.8,4.3,3.4,5.8c1.6,1.4,3.7,2.5,6.2,3.1
					c2.4,0.6,5.4,0.9,8.9,0.9h17.4c3.6,0,6.6-0.3,9-0.9c2.6-0.6,4.7-1.7,6.2-3.1c1.6-1.5,2.8-3.4,3.4-5.8c0.6-2.2,0.9-4.8,0.9-7.9
					v-32.3h-13.9V328.2z"/>
				<path class="st0" d="M194.6,327.8c0,1.5-0.1,2.7-0.3,3.6c-0.2,0.7-0.4,1.2-0.8,1.5c-0.4,0.3-0.9,0.6-1.5,0.7
					c-0.9,0.2-2,0.3-3.3,0.3h-17.5c-1.4,0-2.5-0.1-3.4-0.3c-0.7-0.1-1.2-0.4-1.6-0.7c-0.3-0.3-0.6-0.7-0.7-1.4
					c-0.2-0.8-0.3-1.9-0.3-3.3v-13.7c0-1.2,0.1-2.3,0.3-3.1c0.2-0.6,0.4-1.1,0.8-1.5c0.3-0.3,0.9-0.6,1.6-0.8c0.9-0.2,2-0.3,3.4-0.3
					h13.5v-12.6h-13.9c-3.5,0-6.5,0.3-8.9,0.9c-2.6,0.6-4.7,1.7-6.2,3.1c-1.6,1.5-2.8,3.4-3.4,5.8c-0.6,2.2-0.9,4.9-0.9,7.9v14.6
					c0,3.1,0.3,5.8,0.9,7.9c0.7,2.3,1.8,4.3,3.4,5.8c1.6,1.4,3.7,2.5,6.2,3.1c2.4,0.6,5.4,0.9,8.9,0.9H189c3.6,0,6.6-0.3,9-0.9
					c2.6-0.6,4.7-1.7,6.3-3.1c1.6-1.5,2.8-3.4,3.4-5.8c0.6-2.2,0.9-4.8,0.9-7.9v-13.4h-16.7v2.6l2.7,3.5V327.8z"/>
				<path class="st0" d="M294.9,296.6c-1.4-0.9-3-1.3-5-1.3c-1.5,0-2.7,0.2-3.6,0.7c-0.9,0.5-1.7,1.2-2.5,2.2L258.9,331l-24.7-32.8
					c-0.8-1-1.7-1.7-2.7-2.2c-1-0.5-2.2-0.7-3.7-0.7c-1.9,0-3.6,0.4-5,1.3c-1.1,0.7-2.4,2.1-2.4,4.7v45h13v-27l19.3,25.3
					c1.4,1.8,3.4,2.7,6,2.7c2.6,0,4.6-0.9,6-2.7l19.4-25.3v27h13.2v-45C297.3,298.7,296,297.3,294.9,296.6z"/>
				<path class="st0" d="M325.9,333.6c-0.6-0.1-1.1-0.3-1.4-0.6c-0.3-0.3-0.5-0.7-0.6-1.3c-0.2-0.8-0.3-1.8-0.3-3.1v-1.4h39.5v-11.9
					h-39.5V314c0-1.2,0.1-2.2,0.3-3c0.1-0.6,0.3-1,0.6-1.3c0.3-0.3,0.8-0.6,1.5-0.7c0.8-0.2,1.9-0.3,3.2-0.3h13.3v-12.4h-13.3
					c-3.5,0-6.5,0.3-8.9,0.9c-2.6,0.6-4.7,1.7-6.2,3.1c-1.6,1.5-2.8,3.4-3.4,5.8c-0.6,2.2-0.9,4.9-0.9,7.9v14.6
					c0,3.1,0.3,5.8,0.9,7.9c0.7,2.3,1.8,4.3,3.4,5.8c1.6,1.4,3.7,2.5,6.2,3.1c2.4,0.6,5.4,0.9,8.9,0.9h34.2v-12.4h-34.2
					C327.8,333.9,326.7,333.8,325.9,333.6z"/>
				<path class="st0" d="M419.4,327.3l-31-29.8c-0.7-0.7-1.5-1.2-2.5-1.6c-1-0.4-2.2-0.6-3.6-0.6c-2,0-3.7,0.5-5,1.4
					c-1.1,0.7-2.3,2.1-2.3,4.7v45h13.3v-30.6l30.7,28.9c1,0.9,2.1,1.6,3.2,2.1c1.1,0.4,2.4,0.6,3.7,0.6c1.9,0,3.5-0.4,4.8-1.3
					c1-0.7,2.2-2.1,2.2-4.8v-45h-13.5V327.3z"/>
				<polygon class="st0" points="443.7,296.3 443.7,308.9 463.1,308.9 463.1,346.3 477.2,346.3 477.2,308.9 496.6,308.9 
					496.6,296.3 				"/>
				<path class="st0" d="M535.7,300.7c-0.9-1.5-2.1-2.8-3.4-3.8c-1.5-1.1-3.5-1.7-5.9-1.7c-2.5,0-4.6,0.6-6,1.7
					c-1.3,1-2.4,2.3-3.4,3.7l-28.7,45.7h16.2l6.6-10.7h30.1l6.7,10.7h16.3L535.7,300.7z M534.1,324h-15.9l8-13L534.1,324z"/>
			</g>
			<g>
				<path class="st0" d="M4.3,373.6v-14.4h8.9c1.6,0,2.9,0.5,3.7,1.4c0.7,0.8,1,1.8,1,3.1c0,1.2-0.4,2.2-1.1,3.1
					c-0.8,0.9-2,1.4-3.5,1.4H7.4v5.5H4.3z M7.4,361.5v4.4h4.9c0.9,0,1.6-0.1,2-0.4c0.5-0.3,0.7-0.9,0.7-1.7c0-1.5-0.8-2.2-2.4-2.2
					H7.4z"/>
				<path class="st0" d="M23,373.6v-14.4h9.1c3.3,0,4.9,1.3,4.9,3.9c0,0.9-0.2,1.7-0.7,2.3c-0.4,0.6-1,1-1.7,1.2v0
					c0.8,0.2,1.4,0.6,1.7,1.3c0.3,0.6,0.4,1.5,0.4,2.6c0,1.5,0.2,2.6,0.6,3.1H34c-0.2-0.4-0.4-1.2-0.4-2.2c0-1.2-0.1-2-0.4-2.5
					c-0.4-0.7-1.1-1-2.1-1H26v5.7H23z M26,365.7h5.2c0.9,0,1.5-0.2,2-0.5c0.4-0.3,0.6-0.9,0.6-1.6c0-1.4-0.9-2.1-2.6-2.1H26V365.7z"
					/>
				<path class="st0" d="M42.7,373.6v-14.4h12.5v2.3h-9.5v3.6h9.1v2.3h-9.1v4h9.7v2.3H42.7z"/>
				<path class="st0" d="M75.9,364.5h-3.3c-0.1-1.1-0.6-1.9-1.5-2.5c-0.8-0.6-1.9-0.9-3.2-0.9c-1.5,0-2.6,0.5-3.5,1.4
					c-0.9,1-1.4,2.4-1.4,4.2c0,1.5,0.5,2.7,1.4,3.7c0.9,0.9,2.2,1.4,3.7,1.4c1.4,0,2.5-0.4,3.3-1.3c0.6-0.6,1-1.4,1.1-2.4h3.3
					c-0.6,4-3.3,5.9-8.3,5.9c-2.5,0-4.4-0.8-5.8-2.3c-1.3-1.4-1.9-3.2-1.9-5.3c0-2.2,0.6-4,1.9-5.3c1.4-1.5,3.5-2.3,6.2-2.3
					c2.4,0,4.3,0.6,5.7,1.7C75,361.5,75.8,362.9,75.9,364.5z"/>
				<path class="st0" d="M81.5,373.6v-14.4h3v14.4H81.5z"/>
				<path class="st0" d="M90.1,363.3c0-1.5,0.6-2.7,1.9-3.4c1.1-0.7,2.6-1,4.5-1c4.4,0,6.8,1.5,7.1,4.6h-3.3
					c-0.1-0.6-0.4-1.2-0.9-1.6c-0.6-0.5-1.6-0.7-2.7-0.7c-2.2,0-3.4,0.7-3.4,2c0,0.9,0.9,1.5,2.8,1.8c3.1,0.5,4.8,0.8,5.2,0.9
					c1.9,0.6,2.8,1.9,2.8,3.6c0,1.7-0.8,2.9-2.3,3.7c-1.2,0.6-2.8,1-4.6,1c-4.8,0-7.3-1.7-7.3-5.1h3.3c0.1,1.9,1.5,2.8,4.1,2.8
					c1,0,1.8-0.2,2.5-0.5c0.7-0.4,1.1-0.9,1.1-1.7c0-1-0.9-1.6-2.8-1.9c-3.3-0.6-5-0.9-5.1-1C91,366.1,90.1,364.9,90.1,363.3z"/>
				<path class="st0" d="M109.3,373.6v-14.4h3v14.4H109.3z"/>
				<path class="st0" d="M126.3,374c-2.9,0-5-0.8-6.5-2.3c-1.3-1.3-2-3.1-2-5.3s0.7-4,2-5.3c1.5-1.5,3.7-2.3,6.5-2.3
					c2.9,0,5,0.8,6.5,2.3c1.3,1.3,2,3.1,2,5.3s-0.7,4-2,5.3C131.3,373.3,129.1,374,126.3,374z M126.3,371.8c1.7,0,3-0.5,3.9-1.5
					c0.9-1,1.4-2.2,1.4-3.9c0-1.6-0.5-2.9-1.4-3.9c-0.9-1-2.3-1.5-3.9-1.5c-1.7,0-3,0.5-3.9,1.5c-0.9,1-1.4,2.3-1.4,3.9
					c0,1.6,0.5,2.9,1.4,3.9C123.3,371.3,124.6,371.8,126.3,371.8z"/>
				<path class="st0" d="M140.1,373.6v-14.4h3.5l8.6,10.8v-10.8h2.9v14.4h-3.4l-8.7-10.8v10.8H140.1z"/>
				<path class="st0" d="M170.1,373.6l6.4-14.4h3.6l6.4,14.4h-3.4l-1.5-3.6h-6.8l-1.5,3.6H170.1z M175.8,367.8h5l-2.5-6.1
					L175.8,367.8z"/>
				<path class="st0" d="M205.9,365.7v7.9h-1.8l-0.4-1.9c-0.6,0.7-1.4,1.3-2.3,1.7c-1,0.4-2,0.6-3.2,0.6c-2.9,0-5.1-0.8-6.5-2.3
					c-1.3-1.3-2-3.1-2-5.3c0-2.2,0.7-4,2-5.3c1.5-1.5,3.6-2.3,6.4-2.3c2.1,0,3.9,0.5,5.3,1.5c1.3,0.9,2.1,2.1,2.2,3.6h-3.3
					c-0.3-0.9-0.8-1.6-1.6-2.1c-0.7-0.4-1.6-0.7-2.7-0.7c-3.5,0-5.2,1.8-5.2,5.5c0,1.8,0.5,3.1,1.6,4.1c0.9,0.8,2,1.2,3.5,1.2
					c2.8,0,4.5-1.3,5-3.8h-4.1v-2.3H205.9z"/>
				<path class="st0" d="M212,373.6v-14.4h9.1c3.3,0,4.9,1.3,4.9,3.9c0,0.9-0.2,1.7-0.7,2.3c-0.4,0.6-1,1-1.7,1.2v0
					c0.8,0.2,1.4,0.6,1.7,1.3c0.3,0.6,0.4,1.5,0.4,2.6c0,1.5,0.2,2.6,0.6,3.1H223c-0.2-0.4-0.4-1.2-0.4-2.2c0-1.2-0.1-2-0.4-2.5
					c-0.4-0.7-1.1-1-2.1-1H215v5.7H212z M215,365.7h5.2c0.9,0,1.5-0.2,2-0.5c0.4-0.3,0.6-0.9,0.6-1.6c0-1.4-0.9-2.1-2.6-2.1H215
					V365.7z"/>
				<path class="st0" d="M231.7,373.6v-14.4h3v14.4H231.7z"/>
				<path class="st0" d="M256.2,364.5h-3.3c-0.1-1.1-0.6-1.9-1.5-2.5c-0.8-0.6-1.9-0.9-3.2-0.9c-1.5,0-2.6,0.5-3.5,1.4
					c-0.9,1-1.4,2.4-1.4,4.2c0,1.5,0.5,2.7,1.4,3.7c0.9,0.9,2.2,1.4,3.7,1.4c1.4,0,2.5-0.4,3.3-1.3c0.6-0.6,1-1.4,1.1-2.4h3.3
					c-0.6,4-3.3,5.9-8.3,5.9c-2.5,0-4.4-0.8-5.8-2.3c-1.3-1.4-1.9-3.2-1.9-5.3c0-2.2,0.6-4,1.9-5.3c1.4-1.5,3.5-2.3,6.2-2.3
					c2.4,0,4.3,0.6,5.7,1.7C255.3,361.5,256,362.9,256.2,364.5z"/>
				<path class="st0" d="M261.5,367.4v-8.2h3v8.2c0,1.4,0.2,2.4,0.5,3c0.6,1,1.8,1.5,3.5,1.5c1.8,0,2.9-0.5,3.5-1.5
					c0.4-0.6,0.5-1.6,0.5-3v-8.2h3v8.2c0,1.9-0.3,3.3-0.9,4.2c-1.1,1.6-3.1,2.4-6.2,2.4c-3,0-5.1-0.8-6.2-2.4
					C261.8,370.7,261.5,369.3,261.5,367.4z"/>
				<path class="st0" d="M281.7,373.6v-14.4h3v12.1h8.8v2.4H281.7z"/>
				<path class="st0" d="M300.4,373.6v-12.2h-5.4v-2.3h13.9v2.3h-5.4v12.2H300.4z"/>
				<path class="st0" d="M313.5,367.4v-8.2h3v8.2c0,1.4,0.2,2.4,0.5,3c0.6,1,1.8,1.5,3.5,1.5c1.8,0,2.9-0.5,3.5-1.5
					c0.4-0.6,0.5-1.6,0.5-3v-8.2h3v8.2c0,1.9-0.3,3.3-0.9,4.2c-1.1,1.6-3.1,2.4-6.2,2.4c-3,0-5.1-0.8-6.2-2.4
					C313.8,370.7,313.5,369.3,313.5,367.4z"/>
				<path class="st0" d="M333.7,373.6v-14.4h9.1c3.3,0,4.9,1.3,4.9,3.9c0,0.9-0.2,1.7-0.7,2.3c-0.4,0.6-1,1-1.7,1.2v0
					c0.8,0.2,1.4,0.6,1.7,1.3c0.3,0.6,0.4,1.5,0.4,2.6c0,1.5,0.2,2.6,0.6,3.1h-3.3c-0.2-0.4-0.4-1.2-0.4-2.2c0-1.2-0.1-2-0.4-2.5
					c-0.4-0.7-1.1-1-2.1-1h-5.2v5.7H333.7z M336.7,365.7h5.2c0.9,0,1.5-0.2,2-0.5c0.4-0.3,0.6-0.9,0.6-1.6c0-1.4-0.9-2.1-2.6-2.1
					h-5.2V365.7z"/>
				<path class="st0" d="M353.4,373.6v-14.4H366v2.3h-9.5v3.6h9.1v2.3h-9.1v4h9.7v2.3H353.4z"/>
				<path class="st0" d="M402.7,373.6v-14.4h9.1c3.3,0,4.9,1.3,4.9,3.9c0,0.9-0.2,1.7-0.7,2.3c-0.4,0.6-1,1-1.7,1.2v0
					c0.8,0.2,1.4,0.6,1.7,1.3c0.3,0.6,0.4,1.5,0.4,2.6c0,1.5,0.2,2.6,0.6,3.1h-3.3c-0.2-0.4-0.4-1.2-0.4-2.2c0-1.2-0.1-2-0.4-2.5
					c-0.4-0.7-1.1-1-2.1-1h-5.2v5.7H402.7z M405.8,365.7h5.2c0.9,0,1.5-0.2,2-0.5c0.4-0.3,0.6-0.9,0.6-1.6c0-1.4-0.9-2.1-2.6-2.1
					h-5.2V365.7z"/>
				<path class="st0" d="M422.5,373.6v-14.4h12.5v2.3h-9.5v3.6h9.1v2.3h-9.1v4h9.7v2.3H422.5z"/>
				<path class="st0" d="M440.8,373.6v-14.4h7.8c2.6,0,4.5,0.7,5.7,2.1c0.9,1.2,1.4,2.9,1.4,5.2c0,1.9-0.4,3.5-1.3,4.7
					c-1.1,1.6-2.8,2.4-5,2.4H440.8z M443.8,361.5v9.9h4.3c3,0,4.5-1.6,4.5-4.9c0-2.1-0.6-3.5-1.7-4.2c-0.7-0.5-1.7-0.7-3-0.7H443.8z
					"/>
				<path class="st0" d="M461.2,373.6v-14.4h12.5v2.3h-9.5v3.6h9.1v2.3h-9.1v4h9.7v2.3H461.2z"/>
				<path class="st0" d="M479.5,373.6v-14.4h12v2.3h-9v3.6h8.5v2.3h-8.5v6.3H479.5z"/>
				<path class="st0" d="M496.4,373.6v-14.4h3v14.4H496.4z"/>
				<path class="st0" d="M505.6,373.6v-14.4h3.5l8.6,10.8v-10.8h2.9v14.4h-3.4l-8.7-10.8v10.8H505.6z"/>
				<path class="st0" d="M526.8,373.6v-14.4h12.5v2.3h-9.5v3.6h9.1v2.3h-9.1v4h9.7v2.3H526.8z"/>
				<path class="st0" d="M545.1,373.6v-14.4h7.8c2.6,0,4.5,0.7,5.7,2.1c0.9,1.2,1.4,2.9,1.4,5.2c0,1.9-0.4,3.5-1.3,4.7
					c-1.1,1.6-2.8,2.4-5,2.4H545.1z M548.1,361.5v9.9h4.3c3,0,4.5-1.6,4.5-4.9c0-2.1-0.6-3.5-1.7-4.2c-0.7-0.5-1.7-0.7-3-0.7H548.1z
					"/>
				<circle class="st0" cx="384.1" cy="366.6" r="1.9"/>
			</g>
		</g>
	</g>
	<g>
		<g>
			<path class="st1" d="M210.1,85.4c1.6,11,4.7,21.5,9.1,31.1c-5.2-9.3-9.2-19.4-11.7-30.3c-3.4-14.8-3.8-29.6-1.6-43.7
				c-8.7,8.8-16,19-21.4,30.3c2.9,21.2,12.6,40.7,27.9,56.1c10.2,10.2,22.2,17.8,35.2,22.7c-2.6-2.7-4.9-5.8-6.8-9l0,0
				c-0.1-0.2-0.2-0.3-0.3-0.5c-0.2-0.3-0.3-0.6-0.5-0.8c-23.8-42.5-15.5-94.4,17.2-127.5c-16.2,3.8-31,11.3-43.5,21.5
				C209.1,51,207.5,68.1,210.1,85.4z"/>
		</g>
		<g>
			<path class="st2" d="M252.8,60.1c5.3-9.2,11.9-17.8,19.9-25.6c9.3-9,19.8-16.1,31-21.4c-7-1.4-14.2-2.2-21.6-2.2
				c-3.1,0-6.1,0.1-9.1,0.4c-16.9,13.1-29,31.2-34.6,52.2c-3.7,13.9-4.4,28.1-2,41.8c1.1-3.7,2.6-7.1,4.4-10.4l0,0
				c0.1-0.1,0.1-0.2,0.2-0.3c0.2-0.3,0.3-0.5,0.5-0.8c24.9-41.9,74-60.8,119.1-49c-12.8-13.6-29-23.8-47.3-29.3
				c-13.6,4.3-26.7,11.1-38.5,20.7C266.2,43.3,258.9,51.3,252.8,60.1z"/>
		</g>
		<path class="st3" d="M308.2,53.4c-13.9,3.7-26.5,10.3-37.2,19.1c3.6-0.9,7.3-1.3,11.2-1.3l0,0c49.3,0,90.8,33.3,103.3,78.7
			c3-9.8,4.5-20.3,4.5-31.1c0-10.7-1.6-21-4.5-30.8c-9.8-8-21.2-14.6-33.8-19.2c-10.5-3.8-21.2-5.9-31.8-6.6
			c10.6-0.2,21.4,1,32.2,3.9c11,3,21.1,7.4,30.3,13c-3.1-7.8-7.1-15.2-11.8-22C350.9,49.1,329.1,47.7,308.2,53.4z"/>
		<g>
			<g>
				<g>
					<g>
						<path class="st4" d="M395.6,115.8c0,1,0,2,0,2.9c0,32.2-13.4,61.2-34.9,81.9c-1.3,1.2-2.5,2.4-3.9,3.5
							c-20,17.5-46.2,28.2-74.8,28.2c-29.6,0-56.6-11.4-76.8-30c0.2,0.2,0.5,0.4,0.7,0.6c42.7,34.5,105.2,34.1,147.6-3.4
							c-1.8-2.3-3.7-4.3-5.6-6.1c-22-19.9-54-6.2-90.4,0c-16.5,2.8-34,4.1-51.7,0c-7.4-1.7-14.9-4.4-22.5-8.3
							c21.3,31.7,57.5,52.5,98.6,52.5c29.7,0,56.8-10.9,77.7-28.9c1.3-1.1,2.6-2.3,3.9-3.5c22.9-21.7,37.2-52.3,37.2-86.4
							c0-64.9-52-117.6-116.6-118.8C345.5,3.9,394.2,54,395.6,115.8z"/>
					</g>
					<path class="st5" d="M163.5,112.7c0,0.3,0,0.7,0,1c0,0.6-0.1,1.3-0.1,1.9c0,1,0,2.1,0,3.1c0,0.6,0,1.2,0.1,1.8
						c12.9,19.6,31,35.5,52.4,45.6c-19.8-7-37.5-18.7-51.7-33.9c1.5,13.5,5.3,26.3,11,38.1c2,1.4,4.1,2.7,6.2,3.9
						c0.9,0.5,1.7,1,2.6,1.5c3.2,1.7,6.4,3.2,9.7,4.6c19.8,8.1,59.6,10.3,88.5-14h0c-49.3,0-90.8-33.3-103.3-78.7
						c-1-3.5-1.7-7-2.3-10.6C192.3,37.1,230,8.3,274.8,5.5C215.1,6.4,166.6,53.6,163.5,112.7z"/>
				</g>
			</g>
		</g>
		<path class="st6" d="M357.9,191c1.6-13.4,1.2-27.2-1.5-41.1c-2.5-12.4-6.6-24-12.1-34.7c19.4,33,19.9,62.3,18.5,75.3
			c39.9-42.3-16.5-95.9-46-105.2C340.5,112.8,307.9,174.8,357.9,191z"/>
	</g>
</g>
</svg>
