<?xml version="1.0" encoding="utf-8"?>
<!-- Generator: Adobe Illustrator 22.0.0, SVG Export Plug-In . SVG Version: 6.00 Build 0)  -->
<svg version="1.1" id="Layer_1" xmlns="http://www.w3.org/2000/svg" xmlns:xlink="http://www.w3.org/1999/xlink" x="0px" y="0px"
	 viewBox="0 0 14.6 14.6" style="enable-background:new 0 0 14.6 14.6;" xml:space="preserve">
<style type="text/css">
	.st0{fill:none;stroke:#FFFFFF;stroke-width:0.5;stroke-miterlimit:10;}
	.st1{fill:none;stroke:#FFFFFF;stroke-width:0.5;stroke-linejoin:round;stroke-miterlimit:10;}
</style>
<g>
	<defs>
		<path id="SVGID_1_" d="M11.2,14.3c-1,0-4.7-1.8-6.9-4.1C2.1,8.1,0.3,4.4,0.3,3.4c0-0.9,0.2-1.4,0.6-1.8C1,1.3,1.6,0.8,2.1,0.4
			c0.2-0.1,0.4-0.2,0.6-0.2c0.2,0,0.4,0.1,0.6,0.3l2.1,2.7c0.4,0.5,0.4,1.1,0.1,1.6L5.2,5.4c-0.2,0.3-0.2,0.7,0.1,1
			c0.3,0.4,0.8,1,1.4,1.6C7.2,8.5,7.8,9,8.2,9.3c0.3,0.2,0.7,0.2,1,0.1L9.7,9c0.5-0.3,1.1-0.2,1.6,0.1l2.7,2.1
			c0.2,0.1,0.3,0.4,0.3,0.6c0,0.2,0,0.5-0.2,0.6c-0.3,0.4-0.9,1-1.1,1.3C12.6,14.1,12.1,14.3,11.2,14.3z"/>
	</defs>
	<clipPath id="SVGID_2_">
		<use xlink:href="#SVGID_1_"  style="overflow:visible;"/>
	</clipPath>
</g>
<path class="st0" d="M11.2,14.3c-1,0-4.7-1.8-6.9-4.1C2.1,8.1,0.3,4.4,0.3,3.4c0-0.9,0.2-1.4,0.6-1.8C1,1.3,1.6,0.8,2.1,0.4
	c0.2-0.1,0.4-0.2,0.6-0.2c0.2,0,0.4,0.1,0.6,0.3l2.1,2.7c0.4,0.5,0.4,1.1,0.1,1.6L5.2,5.4c-0.2,0.3-0.2,0.7,0.1,1
	c0.3,0.4,0.8,1,1.4,1.6C7.2,8.5,7.8,9,8.2,9.3c0.3,0.2,0.7,0.2,1,0.1L9.7,9c0.5-0.3,1.1-0.2,1.6,0.1l2.7,2.1
	c0.2,0.1,0.3,0.4,0.3,0.6c0,0.2,0,0.5-0.2,0.6c-0.3,0.4-0.9,1-1.1,1.3C12.6,14.1,12.1,14.3,11.2,14.3z"/>
<path class="st1" d="M10.2,0.8c1.6,0.6,2.9,1.9,3.5,3.5"/>
<path class="st1" d="M9.4,2.9c1,0.4,1.8,1.2,2.2,2.2"/>
<path class="st1" d="M8.7,5.1c0.4,0.1,0.7,0.4,0.8,0.8"/>
</svg>
