<?xml version="1.0" encoding="utf-8"?>
<!-- Generator: Adobe Illustrator 19.2.1, SVG Export Plug-In . SVG Version: 6.00 Build 0)  -->
<svg version="1.1" id="Layer_1" xmlns="http://www.w3.org/2000/svg" xmlns:xlink="http://www.w3.org/1999/xlink" x="0px" y="0px"
	 viewBox="0 0 17.6 16.3" style="enable-background:new 0 0 17.6 16.3;" xml:space="preserve">
<style type="text/css">
	.st0{fill:none;stroke:#D6D6D6;stroke-width:0.5;stroke-linecap:round;stroke-linejoin:round;stroke-miterlimit:10;}
	.st1{fill:#FFFFFF;stroke:#999999;stroke-width:0.5;stroke-miterlimit:10;}
	.st2{fill:#D6D6D6;}
	.st3{fill:#FFFFFF;stroke:#999999;stroke-width:0.5;stroke-linecap:round;stroke-linejoin:round;stroke-miterlimit:10;}
	.st4{fill:#FFFFFF;}
</style>
<path class="st0" d="M9,12.9H6.5c-0.3,0-0.7-0.1-0.9-0.4c-0.2-0.2-0.4-0.6-0.4-0.9v-1.3h2.5c0.3,0,0.7,0.1,0.9,0.4
	C8.9,11,9,11.3,9,11.6L9,12.9L9,12.9z"/>
<line class="st0" x1="9" y1="7.6" x2="9" y2="16.1"/>
<path class="st0" d="M9,15.6v-1.3c0-0.3,0.1-0.7,0.4-0.9c0.2-0.2,0.6-0.4,0.9-0.4h2.5v1.3c0,0.3-0.1,0.7-0.4,0.9
	c-0.2,0.2-0.6,0.4-0.9,0.4H9L9,15.6z"/>
<path class="st1" d="M9,9.4c-2.5,0-4.6-2.1-4.6-4.6c0-2.5,2.1-4.6,4.6-4.6c2.5,0,4.6,2.1,4.6,4.6C13.6,7.4,11.5,9.4,9,9.4z"/>
<g>
	<path class="st2" d="M9,1.7c1.7,0,3.1,1.4,3.1,3.1C12.1,6.6,10.7,8,9,8C7.3,8,5.9,6.6,5.9,4.8C5.9,3.1,7.3,1.7,9,1.7 M9,1.5
		C7.1,1.5,5.6,3,5.6,4.8S7.1,8.2,9,8.2c1.9,0,3.4-1.5,3.4-3.4S10.8,1.5,9,1.5L9,1.5z"/>
</g>
<path class="st0" d="M14.7,13.1c0,0-0.2,0.7,0.3,1.2c0.5,0.5,0.8,0.4,0.9,0.3c0.1-0.1,0.1-0.6-0.2-1C15.2,13.2,14.7,13.1,14.7,13.1z
	"/>
<path class="st0" d="M16.3,13.7c-0.4,0.4-0.4,0.8-0.2,1c0.1,0.1,0.4,0.2,0.9-0.3c0.5-0.5,0.3-1.2,0.3-1.2S16.9,13.2,16.3,13.7z"/>
<line class="st0" x1="16" y1="15" x2="16" y2="16.1"/>
<path class="st0" d="M0.3,4.5c0,0-0.2,0.7,0.3,1.2C1.1,6.2,1.4,6.1,1.5,6c0.1-0.1,0.1-0.6-0.2-1C0.8,4.5,0.3,4.5,0.3,4.5z"/>
<path class="st0" d="M1.9,5C1.5,5.4,1.5,5.8,1.7,6c0.1,0.1,0.4,0.2,0.9-0.3s0.3-1.2,0.3-1.2S2.4,4.5,1.9,5z"/>
<line class="st0" x1="1.6" y1="6.3" x2="1.6" y2="7.4"/>
<g>
	<path class="st3" d="M9,6.6c-1,0-1.8-0.8-1.8-1.8c0-1,0.8-1.8,1.8-1.8c1,0,1.8,0.8,1.8,1.8C10.8,5.8,10,6.6,9,6.6z"/>
	<line class="st3" x1="9" y1="2.7" x2="9" y2="7"/>
	<line class="st3" x1="11.1" y1="4.8" x2="6.9" y2="4.8"/>
	<line class="st3" x1="7.5" y1="3.3" x2="10.5" y2="6.3"/>
	<line class="st3" x1="10.5" y1="3.3" x2="7.5" y2="6.3"/>
	<circle class="st4" cx="9" cy="4.8" r="1.6"/>
</g>
<g>
	<path class="st2" d="M9,4.5c0.2,0,0.4,0.2,0.4,0.4S9.2,5.2,9,5.2S8.6,5,8.6,4.8S8.8,4.5,9,4.5 M9,4.2c-0.3,0-0.6,0.3-0.6,0.6
		c0,0.3,0.3,0.6,0.6,0.6s0.6-0.3,0.6-0.6C9.6,4.5,9.3,4.2,9,4.2L9,4.2z"/>
</g>
</svg>
