<?xml version="1.0" encoding="utf-8"?>
<!-- Generator: Adobe Illustrator 22.0.0, SVG Export Plug-In . SVG Version: 6.00 Build 0)  -->
<svg version="1.1" id="Layer_1" xmlns="http://www.w3.org/2000/svg" xmlns:xlink="http://www.w3.org/1999/xlink" x="0px" y="0px"
	 viewBox="0 0 48.4 14.7" style="enable-background:new 0 0 48.4 14.7;" xml:space="preserve">
<style type="text/css">
	.st0{fill:none;stroke:#000000;stroke-width:0.5;stroke-linecap:round;stroke-linejoin:round;stroke-miterlimit:10;}
	.st1{fill:#FFFFFF;stroke:#000000;stroke-width:0.5;stroke-linecap:round;stroke-linejoin:round;stroke-miterlimit:10;}
	.st2{fill:none;stroke:#888989;stroke-width:0.25;stroke-linecap:round;stroke-linejoin:round;stroke-miterlimit:10;}
	.st3{fill:none;stroke:#A0A09F;stroke-width:0.25;stroke-linecap:round;stroke-linejoin:round;}
	.st4{fill:none;stroke:#000000;stroke-width:0.25;stroke-linecap:round;stroke-linejoin:round;stroke-miterlimit:10;}
	.st5{opacity:0.1;fill:#888989;}
</style>
<path class="st0" d="M32.1,12.1h-9.6V8.4c0-1.2,0.9-2.1,2.1-2.1h1.9"/>
<circle class="st1" cx="23.4" cy="12.1" r="2.4"/>
<circle class="st2" cx="23.4" cy="12.1" r="0.8"/>
<circle class="st1" cx="34.5" cy="11.3" r="3.1"/>
<circle class="st2" cx="34.5" cy="11.3" r="1.7"/>
<polyline class="st0" points="23.8,9.7 23.8,8.6 22.5,8.6 "/>
<polyline class="st1" points="27.3,8.6 27.3,12.8 30.5,12.8 30.5,9 32.6,7.2 35.4,7.2 "/>
<rect x="26.2" y="5.5" class="st1" width="1.5" height="3.4"/>
<rect x="25.7" y="4.6" class="st1" width="1.1" height="3.4"/>
<rect x="31.4" y="-1.7" transform="matrix(6.123234e-17 -1 1 6.123234e-17 29.6507 34.1871)" class="st1" width="1.1" height="8"/>
<path class="st1" d="M25.6,2.8h0.2c0.2,0,0.5,0.2,0.5,0.5v1.3"/>
<line class="st1" x1="27.8" y1="5.5" x2="28.4" y2="3"/>
<line class="st1" x1="35.4" y1="3" x2="35.4" y2="4.7"/>
<line class="st1" x1="27.9" y1="7.4" x2="29.5" y2="5.7"/>
<line class="st1" x1="29.3" y1="5.3" x2="30" y2="6"/>
<polyline class="st1" points="28.1,8.3 28.7,8.3 29.2,7.8 "/>
<line class="st1" x1="27.3" y1="10" x2="30.4" y2="10"/>
<line class="st1" x1="27.3" y1="11.3" x2="30.4" y2="11.3"/>
<polygon class="st1" points="38.4,7.7 37,6.2 35.4,6.2 35.4,4.7 34.3,4.7 34.3,6.2 30.9,6.2 30.9,7.3 36.5,7.3 38.4,9.2 "/>
<g>
	<path class="st3" d="M44.1,7.5C44,7.7,43.8,8,43.8,8.2c0,0.4,0.3,0.6,0.4,0.6c0.1,0,0.4-0.2,0.4-0.6C44.6,7.9,44.2,7.5,44.1,7.5
		C44.2,7.5,44.1,7.5,44.1,7.5z"/>
	<path class="st3" d="M43.6,8.5c-0.2,0.2-0.3,0.6-0.1,0.9c0.2,0.3,0.6,0.4,0.6,0.3s0.1-0.3,0-0.6C43.9,8.7,43.6,8.5,43.6,8.5z"/>
	<path class="st3" d="M43.3,9.5c0,0-0.1,0.5,0.2,0.8c0.3,0.3,0.5,0.3,0.6,0.2c0.1-0.1,0.1-0.4-0.2-0.6C43.6,9.6,43.3,9.5,43.3,9.5z"
		/>
	<path class="st3" d="M43.3,10.4c0,0-0.1,0.5,0.2,0.8c0.3,0.3,0.5,0.3,0.6,0.2c0,0,0,0,0,0c0,0,0-0.1,0-0.1c0-0.1-0.1-0.3-0.2-0.5
		C43.6,10.4,43.3,10.4,43.3,10.4z"/>
	<path class="st3" d="M44.6,8.7c-0.1,0.1-0.2,0.3-0.3,0.5c-0.1,0.3-0.1,0.6,0,0.6s0.4,0,0.6-0.3c0.2-0.3,0.1-0.7-0.1-0.9
		C44.8,8.5,44.7,8.6,44.6,8.7z"/>
	<path class="st3" d="M44.4,9.9c-0.2,0.2-0.2,0.6-0.2,0.6s0.3,0.1,0.6-0.2C45.2,10,45,9.5,45,9.5S44.7,9.6,44.4,9.9z"/>
	<path class="st3" d="M44.4,10.7c-0.2,0.2-0.2,0.4-0.2,0.5c0,0,0,0.1,0,0.1c0,0,0.1,0.1,0.1,0.1c0,0,0,0,0.1,0
		c0.1,0,0.2-0.1,0.4-0.3c0.3-0.3,0.2-0.8,0.2-0.8s0,0-0.1,0c0,0-0.1,0-0.1,0c0,0,0,0,0,0c0,0-0.1,0-0.1,0
		C44.6,10.5,44.5,10.6,44.4,10.7z"/>
	<line class="st3" x1="44.2" y1="8.8" x2="44.2" y2="14.5"/>
</g>
<g>
	<path class="st3" d="M40.9,4.5c-0.1,0.1-0.3,0.4-0.3,0.7c0,0.4,0.3,0.6,0.4,0.6c0.1,0,0.4-0.2,0.4-0.6C41.3,4.9,40.9,4.5,40.9,4.5
		C40.9,4.5,40.9,4.5,40.9,4.5z"/>
	<path class="st3" d="M40.3,5.5c-0.2,0.2-0.3,0.6-0.1,0.9c0.2,0.3,0.6,0.4,0.6,0.3s0.1-0.3,0-0.6C40.7,5.7,40.3,5.5,40.3,5.5z"/>
	<path class="st3" d="M40.1,6.5c0,0-0.1,0.5,0.2,0.8s0.5,0.3,0.6,0.2C41,7.4,41,7.1,40.7,6.9C40.4,6.6,40.1,6.5,40.1,6.5z"/>
	<path class="st3" d="M40.1,7.4c0,0-0.1,0.5,0.2,0.8c0.3,0.3,0.5,0.3,0.6,0.2c0,0,0,0,0,0c0,0,0-0.1,0-0.1c0-0.1-0.1-0.3-0.2-0.5
		C40.4,7.4,40.1,7.4,40.1,7.4z"/>
	<path class="st3" d="M41.3,5.7c-0.1,0.1-0.2,0.3-0.3,0.5c-0.1,0.3-0.1,0.6,0,0.6c0.1,0,0.4,0,0.6-0.3c0.2-0.3,0.1-0.7-0.1-0.9
		C41.5,5.5,41.4,5.6,41.3,5.7z"/>
	<path class="st3" d="M41.1,6.9c-0.2,0.2-0.2,0.6-0.2,0.6c0.1,0.1,0.3,0.1,0.6-0.2s0.2-0.8,0.2-0.8S41.5,6.6,41.1,6.9z"/>
	<path class="st3" d="M41.1,7.7c-0.2,0.2-0.2,0.4-0.2,0.5c0,0,0,0.1,0,0.1c0,0,0.1,0.1,0.1,0.1c0,0,0,0,0.1,0c0.1,0,0.2-0.1,0.4-0.3
		c0.3-0.3,0.2-0.8,0.2-0.8s0,0-0.1,0c0,0-0.1,0-0.1,0c0,0,0,0,0,0c0,0-0.1,0-0.1,0C41.4,7.5,41.3,7.6,41.1,7.7z"/>
	<line class="st3" x1="40.9" y1="5.8" x2="40.9" y2="14.5"/>
</g>
<g>
	<path class="st3" d="M47.4,7.5C47.3,7.7,47,8,47,8.2c0,0.4,0.3,0.6,0.4,0.6c0.1,0,0.4-0.2,0.4-0.6C47.8,7.9,47.4,7.5,47.4,7.5
		C47.4,7.5,47.4,7.5,47.4,7.5z"/>
	<path class="st3" d="M46.8,8.5c-0.2,0.2-0.3,0.6-0.1,0.9c0.2,0.3,0.6,0.4,0.6,0.3c0.1,0,0.1-0.3,0-0.6C47.2,8.7,46.8,8.5,46.8,8.5z
		"/>
	<path class="st3" d="M46.6,9.5c0,0-0.1,0.5,0.2,0.8s0.5,0.3,0.6,0.2c0.1-0.1,0.1-0.4-0.2-0.6C46.9,9.6,46.6,9.5,46.6,9.5z"/>
	<path class="st3" d="M46.6,10.4c0,0-0.1,0.5,0.2,0.8c0.3,0.3,0.5,0.3,0.6,0.2c0,0,0,0,0,0c0,0,0-0.1,0-0.1c0-0.1-0.1-0.3-0.2-0.5
		C46.9,10.4,46.6,10.4,46.6,10.4z"/>
	<path class="st3" d="M47.8,8.7c-0.1,0.1-0.2,0.3-0.3,0.5c-0.1,0.3-0.1,0.6,0,0.6s0.4,0,0.6-0.3c0.2-0.3,0.1-0.7-0.1-0.9
		C48,8.5,47.9,8.6,47.8,8.7z"/>
	<path class="st3" d="M47.6,9.9c-0.2,0.2-0.2,0.6-0.2,0.6s0.3,0.1,0.6-0.2s0.2-0.8,0.2-0.8S48,9.6,47.6,9.9z"/>
	<path class="st3" d="M47.6,10.7c-0.2,0.2-0.2,0.4-0.2,0.5c0,0,0,0.1,0,0.1c0,0,0.1,0.1,0.1,0.1c0,0,0,0,0.1,0
		c0.1,0,0.2-0.1,0.4-0.3c0.3-0.3,0.2-0.8,0.2-0.8s0,0-0.1,0c0,0-0.1,0-0.1,0c0,0,0,0,0,0c0,0-0.1,0-0.1,0
		C47.9,10.5,47.8,10.6,47.6,10.7z"/>
	<line class="st3" x1="47.4" y1="8.8" x2="47.4" y2="14.5"/>
	<path class="st3" d="M47.4,13.2c0,0-0.1-0.9-0.5-1.4"/>
</g>
<g>
	<path class="st3" d="M17.2,9.1c-0.1,0.1-0.3,0.4-0.3,0.7c0,0.4,0.3,0.6,0.4,0.6c0.1,0,0.4-0.2,0.4-0.6C17.7,9.4,17.3,9,17.2,9.1
		C17.3,9,17.3,9,17.2,9.1z"/>
	<path class="st3" d="M16.7,10.1c-0.2,0.2-0.3,0.6-0.1,0.9c0.2,0.3,0.6,0.4,0.6,0.3c0.1,0,0.1-0.3,0-0.6C17,10.2,16.7,10,16.7,10.1z
		"/>
	<path class="st3" d="M16.4,11.1c0,0-0.1,0.5,0.2,0.8c0.3,0.3,0.5,0.3,0.6,0.2c0.1-0.1,0.1-0.4-0.2-0.6
		C16.7,11.1,16.4,11.1,16.4,11.1z"/>
	<path class="st3" d="M17.7,10.2c-0.1,0.1-0.2,0.3-0.3,0.5c-0.1,0.3-0.1,0.6,0,0.6c0.1,0,0.4,0,0.6-0.3c0.2-0.3,0.1-0.7-0.1-0.9
		C17.9,10,17.8,10.1,17.7,10.2z"/>
	<path class="st3" d="M17.5,11.4c-0.2,0.2-0.2,0.6-0.2,0.6c0.1,0.1,0.3,0.1,0.6-0.2c0.3-0.3,0.2-0.8,0.2-0.8S17.8,11.1,17.5,11.4z"
		/>
	<line class="st3" x1="17.3" y1="10.3" x2="17.3" y2="14.5"/>
	<path class="st3" d="M17.3,13.8c0,0,0.1-0.8,0.5-1.3"/>
	<path class="st3" d="M18.4,14.5c0,0,0-0.4,0.3-0.7"/>
	<path class="st3" d="M10.1,8C10,8.1,9.8,8.4,9.8,8.7c0,0.4,0.3,0.6,0.4,0.6c0.1,0,0.4-0.2,0.4-0.6C10.6,8.3,10.2,8,10.1,8
		C10.2,8,10.1,8,10.1,8z"/>
	<path class="st3" d="M9.6,9C9.4,9.2,9.3,9.6,9.5,9.9c0.2,0.3,0.6,0.4,0.6,0.3c0.1,0,0.1-0.3,0-0.6C9.9,9.2,9.6,9,9.6,9z"/>
	<path class="st3" d="M9.3,10c0,0-0.1,0.5,0.2,0.8c0.3,0.3,0.5,0.3,0.6,0.2c0.1-0.1,0.1-0.4-0.2-0.6C9.6,10,9.3,10,9.3,10z"/>
	<path class="st3" d="M10.6,9.2c-0.1,0.1-0.2,0.3-0.3,0.5c-0.1,0.3-0.1,0.6,0,0.6c0.1,0,0.4,0,0.6-0.3C11,9.6,10.9,9.2,10.8,9
		C10.8,9,10.7,9.1,10.6,9.2z"/>
	<path class="st3" d="M10.4,10.4c-0.2,0.2-0.2,0.6-0.2,0.6c0.1,0.1,0.3,0.1,0.6-0.2C11.2,10.5,11,10,11,10S10.7,10,10.4,10.4z"/>
	<line class="st3" x1="10.2" y1="9.3" x2="10.2" y2="14.5"/>
	<path class="st3" d="M13.5,7.5c-0.1,0.1-0.3,0.4-0.3,0.7c0,0.4,0.3,0.6,0.4,0.6c0.1,0,0.4-0.2,0.4-0.6C14,7.9,13.6,7.5,13.5,7.5
		C13.6,7.5,13.6,7.5,13.5,7.5z"/>
	<path class="st3" d="M13,8.5c-0.2,0.2-0.3,0.6-0.1,0.9c0.2,0.3,0.6,0.4,0.6,0.3s0.1-0.3,0-0.6C13.3,8.7,13,8.5,13,8.5z"/>
	<path class="st3" d="M12.7,9.5c0,0-0.1,0.5,0.2,0.8c0.3,0.3,0.5,0.3,0.6,0.2c0.1-0.1,0.1-0.4-0.2-0.6C13.1,9.6,12.7,9.5,12.7,9.5z"
		/>
	<path class="st3" d="M12.7,10.4c0,0-0.1,0.5,0.2,0.8c0.3,0.3,0.5,0.3,0.6,0.2c0,0,0,0,0,0c0,0,0-0.1,0-0.1c0-0.1-0.1-0.3-0.2-0.5
		C13.1,10.4,12.7,10.4,12.7,10.4z"/>
	<path class="st3" d="M14,8.7c-0.1,0.1-0.2,0.3-0.3,0.5c-0.1,0.3-0.1,0.6,0,0.6c0.1,0,0.4,0,0.6-0.3c0.2-0.3,0.1-0.7-0.1-0.9
		C14.2,8.5,14.1,8.6,14,8.7z"/>
	<path class="st3" d="M13.8,9.9c-0.2,0.2-0.2,0.6-0.2,0.6c0.1,0.1,0.3,0.1,0.6-0.2s0.2-0.8,0.2-0.8S14.1,9.6,13.8,9.9z"/>
	<path class="st3" d="M13.8,10.7c-0.2,0.2-0.2,0.4-0.2,0.5c0,0,0,0.1,0,0.1c0,0,0.1,0.1,0.1,0.1c0,0,0,0,0.1,0
		c0.1,0,0.2-0.1,0.4-0.3c0.3-0.3,0.2-0.8,0.2-0.8s0,0-0.1,0c0,0-0.1,0-0.1,0c0,0,0,0,0,0c0,0-0.1,0-0.1,0
		C14.1,10.5,13.9,10.6,13.8,10.7z"/>
	<line class="st3" x1="13.6" y1="8.8" x2="13.6" y2="14.5"/>
	<path class="st3" d="M13.6,13.2c0,0-0.1-0.9-0.5-1.4"/>
	<path class="st3" d="M18.4,14.5c0,0-0.1-0.9-0.5-1.4"/>
	<path class="st3" d="M11.1,14.5c0,0,0-0.3,0.2-0.5"/>
	<path class="st3" d="M11.1,14.5c0,0-0.1-0.5-0.3-0.9"/>
	<polygon class="st3" points="14.5,14.5 15.3,14.5 15.3,14.1 14.7,13.7 14.4,14.1 	"/>
	<line class="st3" x1="14.8" y1="14.3" x2="15" y2="13.9"/>
</g>
<path class="st4" d="M26.3,1l0.5,1c0,0.1,0.1,0.1,0.2,0.2l0.4,0c0.1,0,0.3-0.1,0.3-0.2l0.3-0.9c0-0.1,0-0.1-0.1-0.1H26.3z"/>
<path class="st2" d="M27.1,1.6l0.1,0.2c0,0,0,0,0,0l0.1,0c0,0,0,0,0,0l0.1-0.2c0,0,0,0,0,0L27.1,1.6C27.1,1.6,27,1.6,27.1,1.6z"/>
<path class="st4" d="M29.9,0.2c-2.8-0.3-3.8,0.7-3.8,0.7h1.9c0,0,0.1,0,0.1,0L30,0.3C30,0.3,30,0.2,29.9,0.2z"/>
<polyline class="st4" points="27.9,1.3 29.8,0.7 30,0.3 "/>
<polyline class="st4" points="28.7,1 28.7,1.2 29,1.1 29,0.9 "/>
<polygon class="st5" points="26.1,1.2 0,14.5 14,14.5 26.4,1.7 "/>
</svg>
