<?xml version="1.0" encoding="utf-8"?>
<!-- Generator: Adobe Illustrator 22.0.0, SVG Export Plug-In . SVG Version: 6.00 Build 0)  -->
<svg version="1.1" id="Isolation_Mode" xmlns="http://www.w3.org/2000/svg" xmlns:xlink="http://www.w3.org/1999/xlink" x="0px"
	 y="0px" viewBox="0 0 237.6 237.6" style="enable-background:new 0 0 237.6 237.6;" xml:space="preserve">
<style type="text/css">
	.st0{fill:#FFFFFF;}
	.st1{fill:#FFFFFE;}
</style>
<g>
	<g>
		<path class="st0" d="M46.7,85.4c1.6,11,4.7,21.5,9.1,31.1c-5.2-9.3-9.2-19.4-11.7-30.3c-3.4-14.8-3.8-29.6-1.6-43.7
			c-8.7,8.8-16,19-21.4,30.3c2.9,21.2,12.6,40.7,27.9,56.1c10.2,10.2,22.2,17.8,35.2,22.7c-2.6-2.7-4.9-5.8-6.8-9l0,0
			c-0.1-0.2-0.2-0.3-0.3-0.5c-0.2-0.3-0.3-0.6-0.5-0.8C53.1,98.8,61.4,46.9,94.1,13.8c-16.2,3.8-31,11.3-43.5,21.5
			C45.7,51,44.2,68.1,46.7,85.4z"/>
	</g>
	<g>
		<path class="st1" d="M89.5,60.1c5.3-9.2,11.9-17.8,19.9-25.6c9.3-9,19.8-16.1,31-21.4c-7-1.4-14.2-2.2-21.6-2.2
			c-3.1,0-6.1,0.1-9.1,0.4c-16.9,13.1-29,31.2-34.6,52.2c-3.7,13.9-4.4,28.1-2,41.8c1.1-3.7,2.6-7.1,4.4-10.4l0,0
			c0.1-0.1,0.1-0.2,0.2-0.3c0.2-0.3,0.3-0.5,0.5-0.8c24.9-41.9,74-60.8,119.1-49c-12.8-13.6-29-23.8-47.3-29.3
			c-13.6,4.3-26.7,11.1-38.5,20.7C102.9,43.3,95.6,51.3,89.5,60.1z"/>
	</g>
	<path class="st0" d="M144.9,53.4c-13.9,3.7-26.5,10.3-37.2,19.1c3.6-0.9,7.3-1.3,11.2-1.3l0,0c49.3,0,90.8,33.3,103.3,78.7
		c3-9.8,4.5-20.3,4.5-31.1c0-10.7-1.6-21-4.5-30.8c-9.8-8-21.2-14.6-33.8-19.2c-10.5-3.8-21.2-5.9-31.8-6.6
		c10.6-0.2,21.4,1,32.2,3.9c11,3,21.1,7.4,30.3,13c-3.1-7.8-7.1-15.2-11.8-22C187.6,49.1,165.8,47.7,144.9,53.4z"/>
	<g>
		<g>
			<g>
				<g>
					<path class="st0" d="M232.3,115.8c0,1,0,2,0,2.9c0,32.2-13.4,61.2-34.9,81.9c-1.3,1.2-2.5,2.4-3.9,3.5
						c-20,17.5-46.2,28.2-74.8,28.2c-29.6,0-56.6-11.4-76.8-30c0.2,0.2,0.5,0.4,0.7,0.6c42.7,34.5,105.2,34.1,147.6-3.4
						c-1.8-2.3-3.7-4.3-5.6-6.1c-22-19.9-54-6.2-90.4,0c-16.5,2.8-34,4.1-51.7,0c-7.4-1.7-14.9-4.4-22.5-8.3
						c21.3,31.7,57.5,52.5,98.6,52.5c29.7,0,56.8-10.9,77.7-28.9c1.3-1.1,2.6-2.3,3.9-3.5c22.9-21.7,37.2-52.3,37.2-86.4
						C237.6,53.9,185.6,1.2,121,0C182.2,3.9,230.8,54,232.3,115.8z"/>
				</g>
				<path class="st0" d="M0.2,112.7c0,0.3,0,0.7,0,1c0,0.6-0.1,1.3-0.1,1.9c0,1,0,2.1,0,3.1c0,0.6,0,1.2,0.1,1.8
					c12.9,19.6,31,35.5,52.4,45.6c-19.8-7-37.5-18.7-51.7-33.9c1.5,13.5,5.3,26.3,11,38.1c2,1.4,4.1,2.7,6.2,3.9
					c0.9,0.5,1.7,1,2.6,1.5c3.2,1.7,6.4,3.2,9.7,4.6c19.8,8.1,59.6,10.3,88.5-14h0c-49.3,0-90.8-33.3-103.3-78.7
					c-1-3.5-1.7-7-2.3-10.6C28.9,37.1,66.7,8.3,111.5,5.5C51.8,6.4,3.3,53.6,0.2,112.7z"/>
			</g>
		</g>
	</g>
	<path class="st0" d="M194.6,191c1.6-13.4,1.2-27.2-1.5-41.1c-2.5-12.4-6.6-24-12.1-34.7c19.4,33,19.9,62.3,18.5,75.3
		c39.9-42.3-16.5-95.9-46-105.2C177.2,112.8,144.5,174.8,194.6,191z"/>
</g>
</svg>
